<?xml version="1.0" encoding="UTF-8" standalone="no"?>
<svg
   width="197"
   height="40"
   fill="none"
   viewBox="0 0 197 40"
   version="1.1"
   id="svg4"
   xmlns="http://www.w3.org/2000/svg"
   xmlns:svg="http://www.w3.org/2000/svg">
  <g
     clip-path="url(#a)"
     id="g3">
    <path
       fill="#FF820A"
       d="M 25.093,1.054 21.16,0 17.845,12.37 14.853,1.202 10.92,2.256 14.153,14.322 6.1,6.269 l -2.88,2.88 8.834,8.832 -11,-2.947 -1.054,3.933 12.019,3.22 c -1.184198,-5.103427 2.688587,-9.981173 7.927583,-9.984805 5.238995,-0.0036 9.118538,4.868742 7.941417,9.973805 l 10.922,2.926 1.054,-3.933 -12.066,-3.233 11,-2.947 -1.054,-3.934 -12.066,3.234 8.053,-8.053 -2.88,-2.88 -8.71,8.711 z"
       id="path1"
       style="fill:#05df72;fill-opacity:1" />
    <path
       fill="#FF820A"
       d="m 27.877,22.221 c -0.332487,1.401926 -1.0317,2.690258 -2.026,3.733 l 7.913,7.913 2.88,-2.88 z m -2.106,3.816 c -1.002325,1.02506 -2.257688,1.7671 -3.639,2.151 l 2.88,10.746 3.933,-1.054 z m -3.786,2.19 c -0.664212,0.170448 -1.347267,0.25646 -2.033,0.256 -0.753,0 -1.481,-0.102 -2.173,-0.293 L 14.898,38.946 18.83,40 21.984,28.227 Z M 17.64,28.15 c -1.361298,-0.403588 -2.59339,-1.15615 -3.574,-2.183 l -7.933,7.933 2.88,2.88 8.628,-8.63 z M 14,25.897 C 13.030979,24.861807 12.349744,23.591042 12.024,22.211 L 1.066,25.147 2.12,29.08 Z"
       id="path2"
       style="fill:#05df72;fill-opacity:1" />
    <path
       fill="#ffffff"
       d="M 53.648,27 50.37,12.48 h 3.454 l 2.156,11.814 h 0.242 L 58.774,12.48 H 62.8 l 2.552,11.814 h 0.264 L 67.772,12.48 H 71.05 L 67.728,27 H 63.306 L 60.842,15.186 H 60.644 L 58.18,27 Z m 24.198,0.308 c -0.953,0 -1.804,-0.132 -2.552,-0.396 a 5.14,5.14 0 0 1 -1.87,-1.144 5.018,5.018 0 0 1 -1.188,-1.848 c -0.264,-0.733 -0.396,-1.562 -0.396,-2.486 0,-0.91 0.125,-1.745 0.374,-2.508 a 5.719,5.719 0 0 1 1.144,-2.002 5,5 0 0 1 1.826,-1.32 c 0.719,-0.308 1.533,-0.462 2.442,-0.462 0.88,0 1.665,0.147 2.354,0.44 0.69,0.279 1.262,0.704 1.716,1.276 0.47,0.572 0.807,1.276 1.012,2.112 0.22,0.821 0.301,1.767 0.242,2.838 l -9.064,0.088 v -1.738 l 7.238,-0.066 -1.122,0.88 c 0.103,-0.777 0.052,-1.415 -0.154,-1.914 -0.205,-0.499 -0.506,-0.865 -0.902,-1.1 A 2.386,2.386 0 0 0 77.67,17.606 c -0.557,0 -1.048,0.147 -1.474,0.44 -0.425,0.293 -0.755,0.726 -0.99,1.298 -0.234,0.557 -0.352,1.232 -0.352,2.024 0,1.247 0.272,2.163 0.814,2.75 0.558,0.587 1.284,0.88 2.178,0.88 0.411,0 0.756,-0.051 1.034,-0.154 0.294,-0.117 0.528,-0.264 0.704,-0.44 0.191,-0.176 0.338,-0.374 0.44,-0.594 0.118,-0.22 0.213,-0.44 0.286,-0.66 l 2.75,0.594 a 5.262,5.262 0 0 1 -0.594,1.474 c -0.249,0.425 -0.586,0.8 -1.012,1.122 -0.425,0.308 -0.938,0.543 -1.54,0.704 -0.586,0.176 -1.276,0.264 -2.068,0.264 z m 10.143,0 c -0.645,0 -1.217,-0.125 -1.716,-0.374 a 2.864,2.864 0 0 1 -1.166,-1.122 c -0.279,-0.484 -0.418,-1.085 -0.418,-1.804 0,-0.63 0.117,-1.159 0.352,-1.584 0.25,-0.425 0.609,-0.77 1.078,-1.034 0.47,-0.264 1.049,-0.484 1.738,-0.66 0.69,-0.176 1.474,-0.33 2.354,-0.462 0.47,-0.073 0.85,-0.14 1.144,-0.198 0.308,-0.073 0.535,-0.183 0.682,-0.33 0.147,-0.161 0.22,-0.389 0.22,-0.682 0,-0.41 -0.147,-0.763 -0.44,-1.056 -0.293,-0.293 -0.755,-0.44 -1.386,-0.44 -0.425,0 -0.821,0.073 -1.188,0.22 -0.352,0.147 -0.66,0.367 -0.924,0.66 -0.25,0.293 -0.433,0.667 -0.55,1.122 l -2.794,-0.858 a 4.982,4.982 0 0 1 0.748,-1.562 c 0.337,-0.44 0.74,-0.807 1.21,-1.1 a 5.106,5.106 0 0 1 1.606,-0.682 8.25,8.25 0 0 1 1.958,-0.22 c 1.13,0 2.046,0.183 2.75,0.55 0.719,0.352 1.254,0.91 1.606,1.672 0.352,0.748 0.528,1.716 0.528,2.904 v 1.98 c 0,0.513 0.007,1.034 0.022,1.562 0.03,0.528 0.059,1.063 0.088,1.606 L 95.623,27 H 92.83 a 37.091,37.091 0 0 1 -0.176,-1.254 c -0.044,-0.484 -0.08,-0.968 -0.11,-1.452 h -0.396 a 5.078,5.078 0 0 1 -0.88,1.518 c -0.381,0.455 -0.85,0.821 -1.408,1.1 -0.543,0.264 -1.166,0.396 -1.87,0.396 z m 1.342,-2.288 c 0.279,0 0.557,-0.051 0.836,-0.154 0.293,-0.103 0.572,-0.242 0.836,-0.418 0.279,-0.19 0.528,-0.425 0.748,-0.704 0.235,-0.279 0.425,-0.594 0.572,-0.946 l -0.044,-1.848 0.506,0.11 c -0.264,0.19 -0.572,0.345 -0.924,0.462 a 8.59,8.59 0 0 1 -1.1,0.242 c -0.367,0.059 -0.733,0.125 -1.1,0.198 a 5.652,5.652 0 0 0 -0.99,0.286 1.8,1.8 0 0 0 -0.682,0.484 c -0.161,0.19 -0.242,0.462 -0.242,0.814 0,0.455 0.147,0.814 0.44,1.078 0.293,0.264 0.675,0.396 1.144,0.396 z m 13.111,2.244 c -1.29,0 -2.244,-0.337 -2.86,-1.012 -0.601,-0.69 -0.902,-1.782 -0.902,-3.278 v -5.038 h -1.672 l 0.044,-2.486 h 1.166 c 0.455,0 0.792,-0.066 1.012,-0.198 0.22,-0.132 0.352,-0.374 0.396,-0.726 l 0.286,-1.65 h 1.804 v 2.574 h 2.926 v 2.574 h -2.926 v 4.818 c 0,0.528 0.125,0.91 0.374,1.144 0.25,0.235 0.631,0.352 1.144,0.352 0.279,0 0.543,-0.03 0.792,-0.088 a 1.91,1.91 0 0 0 0.682,-0.286 v 2.948 a 6.552,6.552 0 0 1 -1.254,0.286 8.932,8.932 0 0 1 -1.012,0.066 z M 106.896,27 V 11.27 h 3.19 v 3.608 c 0,0.293 -0.014,0.601 -0.044,0.924 a 7.678,7.678 0 0 1 -0.11,0.99 c -0.044,0.323 -0.095,0.653 -0.154,0.99 -0.044,0.337 -0.095,0.675 -0.154,1.012 h 0.484 c 0.206,-0.748 0.462,-1.393 0.77,-1.936 0.323,-0.543 0.734,-0.96 1.232,-1.254 0.499,-0.308 1.13,-0.462 1.892,-0.462 1.35,0 2.362,0.477 3.036,1.43 0.675,0.939 1.012,2.383 1.012,4.334 V 27 h -3.19 v -5.61 c 0,-1.232 -0.183,-2.141 -0.55,-2.728 -0.352,-0.601 -0.887,-0.902 -1.606,-0.902 -0.586,0 -1.07,0.176 -1.452,0.528 -0.381,0.352 -0.667,0.829 -0.858,1.43 -0.19,0.587 -0.3,1.247 -0.33,1.98 V 27 Z m 19.247,0.308 c -0.953,0 -1.804,-0.132 -2.552,-0.396 a 5.15,5.15 0 0 1 -1.87,-1.144 5.028,5.028 0 0 1 -1.188,-1.848 c -0.264,-0.733 -0.396,-1.562 -0.396,-2.486 0,-0.91 0.125,-1.745 0.374,-2.508 a 5.73,5.73 0 0 1 1.144,-2.002 5.008,5.008 0 0 1 1.826,-1.32 c 0.719,-0.308 1.533,-0.462 2.442,-0.462 0.88,0 1.665,0.147 2.354,0.44 0.69,0.279 1.262,0.704 1.716,1.276 0.47,0.572 0.807,1.276 1.012,2.112 0.22,0.821 0.301,1.767 0.242,2.838 l -9.064,0.088 v -1.738 l 7.238,-0.066 -1.122,0.88 c 0.103,-0.777 0.052,-1.415 -0.154,-1.914 -0.205,-0.499 -0.506,-0.865 -0.902,-1.1 a 2.383,2.383 0 0 0 -1.276,-0.352 c -0.557,0 -1.048,0.147 -1.474,0.44 -0.425,0.293 -0.755,0.726 -0.99,1.298 -0.234,0.557 -0.352,1.232 -0.352,2.024 0,1.247 0.272,2.163 0.814,2.75 0.558,0.587 1.284,0.88 2.178,0.88 0.411,0 0.756,-0.051 1.034,-0.154 0.294,-0.117 0.528,-0.264 0.704,-0.44 0.191,-0.176 0.338,-0.374 0.44,-0.594 0.118,-0.22 0.213,-0.44 0.286,-0.66 l 2.75,0.594 a 5.262,5.262 0 0 1 -0.594,1.474 c -0.249,0.425 -0.586,0.8 -1.012,1.122 -0.425,0.308 -0.938,0.543 -1.54,0.704 -0.586,0.176 -1.276,0.264 -2.068,0.264 z M 133.558,27 V 15.45 h 2.618 l 0.022,3.938 h 0.418 c 0.118,-0.983 0.316,-1.782 0.594,-2.398 0.294,-0.616 0.697,-1.07 1.21,-1.364 0.514,-0.293 1.152,-0.44 1.914,-0.44 0.132,0 0.272,0.007 0.418,0.022 0.162,0 0.345,0.022 0.55,0.066 l -0.132,3.366 a 2.794,2.794 0 0 0 -0.726,-0.22 4.33,4.33 0 0 0 -0.704,-0.066 c -0.572,0 -1.063,0.132 -1.474,0.396 -0.41,0.264 -0.748,0.645 -1.012,1.144 -0.249,0.484 -0.418,1.078 -0.506,1.782 V 27 Z m 14.764,0 V 12.48 h 4.136 l 6.578,10.274 h 0.242 L 159.08,12.48 h 3.08 V 27 h -3.74 l -6.952,-10.758 h -0.242 L 151.424,27 Z m 22.14,0.308 c -1.158,0 -2.178,-0.227 -3.058,-0.682 a 5.052,5.052 0 0 1 -2.068,-2.046 c -0.498,-0.91 -0.748,-2.039 -0.748,-3.388 0,-1.35 0.25,-2.471 0.748,-3.366 0.514,-0.895 1.21,-1.562 2.09,-2.002 0.895,-0.455 1.907,-0.682 3.036,-0.682 1.159,0 2.178,0.227 3.058,0.682 a 4.845,4.845 0 0 1 2.09,2.046 c 0.514,0.895 0.77,2.017 0.77,3.366 0,1.364 -0.264,2.5 -0.792,3.41 a 4.873,4.873 0 0 1 -2.112,2.002 c -0.88,0.44 -1.884,0.66 -3.014,0.66 z m 0.11,-2.354 c 0.572,0 1.049,-0.132 1.43,-0.396 0.396,-0.264 0.69,-0.66 0.88,-1.188 0.206,-0.543 0.308,-1.195 0.308,-1.958 0,-0.807 -0.11,-1.489 -0.33,-2.046 -0.205,-0.572 -0.513,-1.005 -0.924,-1.298 -0.41,-0.308 -0.931,-0.462 -1.562,-0.462 -0.542,0 -1.012,0.132 -1.408,0.396 -0.396,0.25 -0.696,0.645 -0.902,1.188 -0.205,0.528 -0.308,1.18 -0.308,1.958 0,1.247 0.25,2.193 0.748,2.838 0.499,0.645 1.188,0.968 2.068,0.968 z m 9.734,2.046 -2.86,-11.55 h 3.3 l 1.628,9.042 h 0.418 l 1.936,-9.042 h 3.806 l 2.002,9.042 h 0.418 l 1.584,-9.042 h 3.234 L 192.89,27 h -4.356 l -1.804,-8.976 h -0.374 L 184.64,27 Z"
       id="path3" />
  </g>
  <defs
     id="defs4">
    <clipPath
       id="a">
      <path
         fill="#ffffff"
         d="M 0,0 H 196.864 V 40 H 0 Z"
         id="path4" />
    </clipPath>
  </defs>
</svg>
