<?xml version="1.0" encoding="UTF-8" standalone="no"?>
<svg
   width="40"
   height="40"
   fill="none"
   viewBox="0 0 40 40"
   version="1.1"
   id="svg4"
   xmlns="http://www.w3.org/2000/svg"
   xmlns:svg="http://www.w3.org/2000/svg">
  <path
     fill="#ff820a"
     d="M 25.093,1.054 21.16,0 17.845,12.37 14.853,1.202 10.92,2.256 14.153,14.322 6.1,6.269 l -2.88,2.88 8.834,8.832 -11,-2.947 -1.054,3.933 12.019,3.22 a 8.144,8.144 0 1 1 15.869,-0.011 l 10.922,2.926 1.054,-3.933 -12.066,-3.233 11,-2.947 -1.054,-3.934 -12.066,3.234 8.053,-8.053 -2.88,-2.88 -8.71,8.711 z"
     id="path1" />
  <path
     fill="#ff820a"
     d="m 27.877,22.221 a 8.127,8.127 0 0 1 -2.026,3.733 l 7.913,7.913 2.88,-2.88 z m -2.106,3.816 a 8.137,8.137 0 0 1 -3.639,2.151 l 2.88,10.746 3.933,-1.054 z m -3.786,2.19 a 8.157,8.157 0 0 1 -2.033,0.256 c -0.753,0 -1.481,-0.102 -2.173,-0.293 L 14.898,38.946 18.83,40 21.984,28.227 Z M 17.64,28.15 a 8.142,8.142 0 0 1 -3.574,-2.183 l -7.933,7.933 2.88,2.88 8.628,-8.63 z M 14,25.897 A 8.125,8.125 0 0 1 12.024,22.211 L 1.066,25.147 2.12,29.08 Z"
     id="path2" />
  <defs
     id="defs4" />
</svg>
